<svg width="12" height="15" viewBox="0 0 12 15" fill="none" xmlns="http://www.w3.org/2000/svg">
<g clip-path="url(#clip0_612_6)">
<path d="M12 7.51787C12 9.4688 12 11.4126 12 13.3635C12 14.1353 11.52 14.7499 10.7855 14.95C10.6327 14.9929 10.4727 15.0071 10.3127 15.0071C7.44 15.0071 4.56727 15.0071 1.69455 15.0071C0.72 15.0071 0.00727273 14.3068 0.00727273 13.3492C0 10.4979 0 7.63935 0 4.78799C0 4.30205 0.174545 3.88757 0.523636 3.54455C1.55636 2.53692 2.58182 1.5293 3.60727 0.514531C3.96364 0.17151 4.37818 0 4.87273 0C6.68364 0 8.49455 0 10.3055 0C11.28 0 11.9927 0.693187 11.9927 1.65793C11.9927 3.60886 11.9927 5.56694 11.9927 7.51787H12ZM3.81091 1.83659C2.93818 2.69414 2.09455 3.52311 1.25091 4.35207C1.13455 4.46641 1.08364 4.60934 1.08364 4.7737C1.08364 7.63221 1.08364 10.4907 1.08364 13.3421C1.08364 13.7065 1.30909 13.9281 1.67273 13.9281C4.55273 13.9281 7.43273 13.9281 10.3127 13.9281C10.6691 13.9281 10.8945 13.7065 10.8945 13.3564C10.8945 9.4545 10.8945 5.55264 10.8945 1.65079C10.8945 1.28633 10.6691 1.07194 10.2982 1.07194C8.54545 1.07194 6.8 1.07194 5.04727 1.07194C4.91636 1.07194 4.88727 1.10052 4.88727 1.22916C4.88727 1.90091 4.89455 2.5798 4.88727 3.25155C4.88 4.02334 4.29818 4.67365 3.52727 4.79514C3.10545 4.85946 2.67636 4.80943 2.25455 4.82373C2.16727 4.82373 2.16727 4.78085 2.16727 4.72368C2.16727 4.43783 2.16727 4.15198 2.16727 3.87327C2.16727 3.78037 2.19636 3.75179 2.29091 3.75179C2.61091 3.75179 2.93818 3.75179 3.26545 3.75179C3.54182 3.75179 3.78909 3.55169 3.80364 3.28728C3.81818 2.81563 3.80364 2.34397 3.80364 1.83659H3.81091Z" fill="#484848"/>
<path d="M6.01456 5.89551C7.22911 5.89551 8.44365 5.89551 9.6582 5.89551C9.78183 5.89551 9.8182 5.92409 9.8182 6.05273C9.80365 6.31714 9.81092 6.5887 9.8182 6.85311C9.8182 6.94601 9.78911 6.97459 9.69456 6.97459C7.22911 6.97459 4.76365 6.97459 2.2982 6.97459C2.20365 6.97459 2.17456 6.95315 2.17456 6.85311C2.17456 6.5887 2.18183 6.31714 2.17456 6.05273C2.17456 5.92409 2.20365 5.89551 2.33456 5.89551C3.56365 5.89551 4.78547 5.89551 6.01456 5.89551Z" fill="#484848"/>
<path d="M5.9782 9.11131C4.76365 9.11131 3.54911 9.11131 2.33456 9.11131C2.21092 9.11131 2.17456 9.08273 2.17456 8.95409C2.18911 8.68968 2.18183 8.41812 2.17456 8.15371C2.17456 8.06081 2.20365 8.03223 2.2982 8.03223C4.76365 8.03223 7.22911 8.03223 9.69456 8.03223C9.78911 8.03223 9.8182 8.05367 9.8182 8.15371C9.8182 8.41812 9.81092 8.68968 9.8182 8.95409C9.8182 9.08273 9.78911 9.11131 9.6582 9.11131C8.42911 9.11131 7.20729 9.11131 5.9782 9.11131Z" fill="#484848"/>
<path d="M5.98556 11.2554C4.77101 11.2554 3.55647 11.2554 2.34192 11.2554C2.21828 11.2554 2.17465 11.234 2.18192 11.1054C2.19647 10.841 2.18919 10.5694 2.18192 10.305C2.18192 10.2121 2.20374 10.1764 2.29828 10.1835C2.44374 10.1906 2.59647 10.1835 2.74192 10.1835C5.0401 10.1835 7.34556 10.1835 9.64374 10.1835C9.78192 10.1835 9.82556 10.2049 9.81829 10.355C9.80374 10.6051 9.80374 10.8553 9.81829 11.1054C9.81829 11.2269 9.79647 11.2626 9.66556 11.2626C8.43647 11.2626 7.21465 11.2626 5.98556 11.2626V11.2554Z" fill="#484848"/>
</g>
<defs>
<clipPath id="clip0_612_6">
<rect width="12" height="15" fill="white"/>
</clipPath>
</defs>
</svg>
